<?xml version="1.0" encoding="UTF-8" standalone="no"?>
<svg
   width="1587"
   height="1153"
   viewBox="0 0 1587 1153"
   fill="none"
   version="1.1"
   id="svg29"
   sodipodi:docname="body-bg.svg"
   inkscape:version="1.4 (e7c3feb100, 2024-10-09)"
   xmlns:inkscape="http://www.inkscape.org/namespaces/inkscape"
   xmlns:sodipodi="http://sodipodi.sourceforge.net/DTD/sodipodi-0.dtd"
   xmlns="http://www.w3.org/2000/svg"
   xmlns:svg="http://www.w3.org/2000/svg">
  <sodipodi:namedview
     id="namedview29"
     pagecolor="#ffffff"
     bordercolor="#000000"
     borderopacity="0.25"
     inkscape:showpageshadow="2"
     inkscape:pageopacity="0.0"
     inkscape:pagecheckerboard="0"
     inkscape:deskcolor="#d1d1d1"
     inkscape:zoom="0.71201299"
     inkscape:cx="799.84496"
     inkscape:cy="659.39809"
     inkscape:window-width="1719"
     inkscape:window-height="1412"
     inkscape:window-x="0"
     inkscape:window-y="0"
     inkscape:window-maximized="0"
     inkscape:current-layer="svg29" />
  <defs
     id="defs29">
    <clipPath
       id="clip0_565_7">
      <rect
         width="1587"
         height="1153"
         fill="white"
         id="rect29" />
    </clipPath>
  </defs>
  <g
     id="g104"
     inkscape:label="Towers">
    <g
       id="g48"
       transform="matrix(0.50309149,0,0,0.50309149,-223.58638,19.728489)"
       style="fill:#f2f2f2">
      <path
         fill="currentColor"
         d="m 633.98325,554.48534 3.61884,-3.61885 c -3.0157,-3.0157 -4.52356,-6.93612 -4.52356,-10.55497 0,-3.92042 1.50786,-7.84084 4.52356,-10.55498 l -3.61884,-3.61884 c -3.92042,3.92042 -6.03142,9.04712 -6.03142,14.17382 0,5.1267 2.111,10.2534 6.03142,14.17382 M 669.56859,518.9 l -3.61885,3.61885 c 4.82513,4.82513 7.23769,11.45968 7.23769,17.79267 0,6.33298 -2.41256,12.96754 -7.23769,17.79267 l 3.61885,3.61885 c 6.03141,-6.03142 8.74555,-13.57068 8.74555,-21.41152 0,-7.84084 -3.01571,-15.38011 -8.74555,-21.41152"
         id="path1-6"
         style="fill:#f2f2f2;stroke-width:3.01571" />
      <path
         fill="currentColor"
         d="M 630.3644,522.51885 626.74555,518.9 C 621.01571,524.93141 618,532.47068 618,540.31152 c 0,7.84084 3.01571,15.3801 8.74555,21.41152 l 3.61885,-3.61885 c -4.82513,-4.82513 -7.2377,-11.45969 -7.2377,-17.79267 0,-6.33299 2.41257,-12.96754 7.2377,-17.79267 m 31.96649,31.96649 c 3.92042,-3.92042 6.03141,-9.04712 6.03141,-14.17382 -0.30157,-5.1267 -2.11099,-10.2534 -6.03141,-14.17382 l -3.61885,3.61884 c 3.01571,3.01571 4.52356,6.93613 4.52356,10.55498 0,3.92042 -1.50785,7.84084 -4.52356,10.55497 z m -6.63455,-14.17382 a 7.53927,7.53927 0 0 0 -15.07854,0 c 0,2.29194 1.02534,4.2823 2.62367,5.66953 L 633.07853,576.5 h 6.03142 l 2.02052,-6.03141 h 14.08335 l 1.99037,6.03141 h 6.03141 l -10.16293,-30.51895 c 1.59832,-1.38723 2.62367,-3.37759 2.62367,-5.66953 m -12.5755,24.12565 5.03623,-15.07853 5.03623,15.07853 z"
         id="path2-7"
         style="fill:#f2f2f2;stroke-width:3.01571" />
    </g>
    <g
       id="g51"
       transform="matrix(0.50309149,0,0,0.50309149,222.4788,22.035728)"
       style="fill:#f2f2f2">
      <path
         fill="currentColor"
         d="m 633.98325,554.48534 3.61884,-3.61885 c -3.0157,-3.0157 -4.52356,-6.93612 -4.52356,-10.55497 0,-3.92042 1.50786,-7.84084 4.52356,-10.55498 l -3.61884,-3.61884 c -3.92042,3.92042 -6.03142,9.04712 -6.03142,14.17382 0,5.1267 2.111,10.2534 6.03142,14.17382 M 669.56859,518.9 l -3.61885,3.61885 c 4.82513,4.82513 7.23769,11.45968 7.23769,17.79267 0,6.33298 -2.41256,12.96754 -7.23769,17.79267 l 3.61885,3.61885 c 6.03141,-6.03142 8.74555,-13.57068 8.74555,-21.41152 0,-7.84084 -3.01571,-15.38011 -8.74555,-21.41152"
         id="path50"
         style="fill:#f2f2f2;stroke-width:3.01571" />
      <path
         fill="currentColor"
         d="M 630.3644,522.51885 626.74555,518.9 C 621.01571,524.93141 618,532.47068 618,540.31152 c 0,7.84084 3.01571,15.3801 8.74555,21.41152 l 3.61885,-3.61885 c -4.82513,-4.82513 -7.2377,-11.45969 -7.2377,-17.79267 0,-6.33299 2.41257,-12.96754 7.2377,-17.79267 m 31.96649,31.96649 c 3.92042,-3.92042 6.03141,-9.04712 6.03141,-14.17382 -0.30157,-5.1267 -2.11099,-10.2534 -6.03141,-14.17382 l -3.61885,3.61884 c 3.01571,3.01571 4.52356,6.93613 4.52356,10.55498 0,3.92042 -1.50785,7.84084 -4.52356,10.55497 z m -6.63455,-14.17382 a 7.53927,7.53927 0 0 0 -15.07854,0 c 0,2.29194 1.02534,4.2823 2.62367,5.66953 L 633.07853,576.5 h 6.03142 l 2.02052,-6.03141 h 14.08335 l 1.99037,6.03141 h 6.03141 l -10.16293,-30.51895 c 1.59832,-1.38723 2.62367,-3.37759 2.62367,-5.66953 m -12.5755,24.12565 5.03623,-15.07853 5.03623,15.07853 z"
         id="path51"
         style="fill:#f2f2f2;stroke-width:3.01571" />
    </g>
    <g
       id="g65"
       transform="matrix(0.50309149,0,0,0.50309149,567.23704,146.53995)"
       style="fill:#f2f2f2">
      <path
         fill="currentColor"
         d="m 633.98325,554.48534 3.61884,-3.61885 c -3.0157,-3.0157 -4.52356,-6.93612 -4.52356,-10.55497 0,-3.92042 1.50786,-7.84084 4.52356,-10.55498 l -3.61884,-3.61884 c -3.92042,3.92042 -6.03142,9.04712 -6.03142,14.17382 0,5.1267 2.111,10.2534 6.03142,14.17382 M 669.56859,518.9 l -3.61885,3.61885 c 4.82513,4.82513 7.23769,11.45968 7.23769,17.79267 0,6.33298 -2.41256,12.96754 -7.23769,17.79267 l 3.61885,3.61885 c 6.03141,-6.03142 8.74555,-13.57068 8.74555,-21.41152 0,-7.84084 -3.01571,-15.38011 -8.74555,-21.41152"
         id="path64"
         style="fill:#f2f2f2;stroke-width:3.01571" />
      <path
         fill="currentColor"
         d="M 630.3644,522.51885 626.74555,518.9 C 621.01571,524.93141 618,532.47068 618,540.31152 c 0,7.84084 3.01571,15.3801 8.74555,21.41152 l 3.61885,-3.61885 c -4.82513,-4.82513 -7.2377,-11.45969 -7.2377,-17.79267 0,-6.33299 2.41257,-12.96754 7.2377,-17.79267 m 31.96649,31.96649 c 3.92042,-3.92042 6.03141,-9.04712 6.03141,-14.17382 -0.30157,-5.1267 -2.11099,-10.2534 -6.03141,-14.17382 l -3.61885,3.61884 c 3.01571,3.01571 4.52356,6.93613 4.52356,10.55498 0,3.92042 -1.50785,7.84084 -4.52356,10.55497 z m -6.63455,-14.17382 a 7.53927,7.53927 0 0 0 -15.07854,0 c 0,2.29194 1.02534,4.2823 2.62367,5.66953 L 633.07853,576.5 h 6.03142 l 2.02052,-6.03141 h 14.08335 l 1.99037,6.03141 h 6.03141 l -10.16293,-30.51895 c 1.59832,-1.38723 2.62367,-3.37759 2.62367,-5.66953 m -12.5755,24.12565 5.03623,-15.07853 5.03623,15.07853 z"
         id="path65"
         style="fill:#f2f2f2;stroke-width:3.01571" />
    </g>
    <g
       id="g67"
       transform="matrix(0.50309149,0,0,0.50309149,925.28303,-3.6407278)"
       style="fill:#f2f2f2">
      <path
         fill="currentColor"
         d="m 633.98325,554.48534 3.61884,-3.61885 c -3.0157,-3.0157 -4.52356,-6.93612 -4.52356,-10.55497 0,-3.92042 1.50786,-7.84084 4.52356,-10.55498 l -3.61884,-3.61884 c -3.92042,3.92042 -6.03142,9.04712 -6.03142,14.17382 0,5.1267 2.111,10.2534 6.03142,14.17382 M 669.56859,518.9 l -3.61885,3.61885 c 4.82513,4.82513 7.23769,11.45968 7.23769,17.79267 0,6.33298 -2.41256,12.96754 -7.23769,17.79267 l 3.61885,3.61885 c 6.03141,-6.03142 8.74555,-13.57068 8.74555,-21.41152 0,-7.84084 -3.01571,-15.38011 -8.74555,-21.41152"
         id="path66"
         style="fill:#f2f2f2;stroke-width:3.01571" />
      <path
         fill="currentColor"
         d="M 630.3644,522.51885 626.74555,518.9 C 621.01571,524.93141 618,532.47068 618,540.31152 c 0,7.84084 3.01571,15.3801 8.74555,21.41152 l 3.61885,-3.61885 c -4.82513,-4.82513 -7.2377,-11.45969 -7.2377,-17.79267 0,-6.33299 2.41257,-12.96754 7.2377,-17.79267 m 31.96649,31.96649 c 3.92042,-3.92042 6.03141,-9.04712 6.03141,-14.17382 -0.30157,-5.1267 -2.11099,-10.2534 -6.03141,-14.17382 l -3.61885,3.61884 c 3.01571,3.01571 4.52356,6.93613 4.52356,10.55498 0,3.92042 -1.50785,7.84084 -4.52356,10.55497 z m -6.63455,-14.17382 a 7.53927,7.53927 0 0 0 -15.07854,0 c 0,2.29194 1.02534,4.2823 2.62367,5.66953 L 633.07853,576.5 h 6.03142 l 2.02052,-6.03141 h 14.08335 l 1.99037,6.03141 h 6.03141 l -10.16293,-30.51895 c 1.59832,-1.38723 2.62367,-3.37759 2.62367,-5.66953 m -12.5755,24.12565 5.03623,-15.07853 5.03623,15.07853 z"
         id="path67"
         style="fill:#f2f2f2;stroke-width:3.01571" />
    </g>
    <g
       id="g78"
       transform="matrix(0.50309149,0,0,0.50309149,-225.1758,752.79282)"
       style="fill:#f2f2f2">
      <path
         fill="currentColor"
         d="m 633.98325,554.48534 3.61884,-3.61885 c -3.0157,-3.0157 -4.52356,-6.93612 -4.52356,-10.55497 0,-3.92042 1.50786,-7.84084 4.52356,-10.55498 l -3.61884,-3.61884 c -3.92042,3.92042 -6.03142,9.04712 -6.03142,14.17382 0,5.1267 2.111,10.2534 6.03142,14.17382 M 669.56859,518.9 l -3.61885,3.61885 c 4.82513,4.82513 7.23769,11.45968 7.23769,17.79267 0,6.33298 -2.41256,12.96754 -7.23769,17.79267 l 3.61885,3.61885 c 6.03141,-6.03142 8.74555,-13.57068 8.74555,-21.41152 0,-7.84084 -3.01571,-15.38011 -8.74555,-21.41152"
         id="path77"
         style="fill:#f2f2f2;stroke-width:3.01571" />
      <path
         fill="currentColor"
         d="M 630.3644,522.51885 626.74555,518.9 C 621.01571,524.93141 618,532.47068 618,540.31152 c 0,7.84084 3.01571,15.3801 8.74555,21.41152 l 3.61885,-3.61885 c -4.82513,-4.82513 -7.2377,-11.45969 -7.2377,-17.79267 0,-6.33299 2.41257,-12.96754 7.2377,-17.79267 m 31.96649,31.96649 c 3.92042,-3.92042 6.03141,-9.04712 6.03141,-14.17382 -0.30157,-5.1267 -2.11099,-10.2534 -6.03141,-14.17382 l -3.61885,3.61884 c 3.01571,3.01571 4.52356,6.93613 4.52356,10.55498 0,3.92042 -1.50785,7.84084 -4.52356,10.55497 z m -6.63455,-14.17382 a 7.53927,7.53927 0 0 0 -15.07854,0 c 0,2.29194 1.02534,4.2823 2.62367,5.66953 L 633.07853,576.5 h 6.03142 l 2.02052,-6.03141 h 14.08335 l 1.99037,6.03141 h 6.03141 l -10.16293,-30.51895 c 1.59832,-1.38723 2.62367,-3.37759 2.62367,-5.66953 m -12.5755,24.12565 5.03623,-15.07853 5.03623,15.07853 z"
         id="path78"
         style="fill:#f2f2f2;stroke-width:3.01571" />
    </g>
    <g
       id="g80"
       transform="matrix(0.50309149,0,0,0.50309149,19.862008,569.63434)"
       style="fill:#f2f2f2">
      <path
         fill="currentColor"
         d="m 633.98325,554.48534 3.61884,-3.61885 c -3.0157,-3.0157 -4.52356,-6.93612 -4.52356,-10.55497 0,-3.92042 1.50786,-7.84084 4.52356,-10.55498 l -3.61884,-3.61884 c -3.92042,3.92042 -6.03142,9.04712 -6.03142,14.17382 0,5.1267 2.111,10.2534 6.03142,14.17382 M 669.56859,518.9 l -3.61885,3.61885 c 4.82513,4.82513 7.23769,11.45968 7.23769,17.79267 0,6.33298 -2.41256,12.96754 -7.23769,17.79267 l 3.61885,3.61885 c 6.03141,-6.03142 8.74555,-13.57068 8.74555,-21.41152 0,-7.84084 -3.01571,-15.38011 -8.74555,-21.41152"
         id="path79"
         style="fill:#f2f2f2;stroke-width:3.01571" />
      <path
         fill="currentColor"
         d="M 630.3644,522.51885 626.74555,518.9 C 621.01571,524.93141 618,532.47068 618,540.31152 c 0,7.84084 3.01571,15.3801 8.74555,21.41152 l 3.61885,-3.61885 c -4.82513,-4.82513 -7.2377,-11.45969 -7.2377,-17.79267 0,-6.33299 2.41257,-12.96754 7.2377,-17.79267 m 31.96649,31.96649 c 3.92042,-3.92042 6.03141,-9.04712 6.03141,-14.17382 -0.30157,-5.1267 -2.11099,-10.2534 -6.03141,-14.17382 l -3.61885,3.61884 c 3.01571,3.01571 4.52356,6.93613 4.52356,10.55498 0,3.92042 -1.50785,7.84084 -4.52356,10.55497 z m -6.63455,-14.17382 a 7.53927,7.53927 0 0 0 -15.07854,0 c 0,2.29194 1.02534,4.2823 2.62367,5.66953 L 633.07853,576.5 h 6.03142 l 2.02052,-6.03141 h 14.08335 l 1.99037,6.03141 h 6.03141 l -10.16293,-30.51895 c 1.59832,-1.38723 2.62367,-3.37759 2.62367,-5.66953 m -12.5755,24.12565 5.03623,-15.07853 5.03623,15.07853 z"
         id="path80"
         style="fill:#f2f2f2;stroke-width:3.01571" />
    </g>
    <g
       id="g91"
       transform="matrix(0.50309149,0,0,0.50309149,501.22701,618.45027)"
       style="fill:#f2f2f2">
      <path
         fill="currentColor"
         d="m 633.98325,554.48534 3.61884,-3.61885 c -3.0157,-3.0157 -4.52356,-6.93612 -4.52356,-10.55497 0,-3.92042 1.50786,-7.84084 4.52356,-10.55498 l -3.61884,-3.61884 c -3.92042,3.92042 -6.03142,9.04712 -6.03142,14.17382 0,5.1267 2.111,10.2534 6.03142,14.17382 M 669.56859,518.9 l -3.61885,3.61885 c 4.82513,4.82513 7.23769,11.45968 7.23769,17.79267 0,6.33298 -2.41256,12.96754 -7.23769,17.79267 l 3.61885,3.61885 c 6.03141,-6.03142 8.74555,-13.57068 8.74555,-21.41152 0,-7.84084 -3.01571,-15.38011 -8.74555,-21.41152"
         id="path90"
         style="fill:#f2f2f2;stroke-width:3.01571" />
      <path
         fill="currentColor"
         d="M 630.3644,522.51885 626.74555,518.9 C 621.01571,524.93141 618,532.47068 618,540.31152 c 0,7.84084 3.01571,15.3801 8.74555,21.41152 l 3.61885,-3.61885 c -4.82513,-4.82513 -7.2377,-11.45969 -7.2377,-17.79267 0,-6.33299 2.41257,-12.96754 7.2377,-17.79267 m 31.96649,31.96649 c 3.92042,-3.92042 6.03141,-9.04712 6.03141,-14.17382 -0.30157,-5.1267 -2.11099,-10.2534 -6.03141,-14.17382 l -3.61885,3.61884 c 3.01571,3.01571 4.52356,6.93613 4.52356,10.55498 0,3.92042 -1.50785,7.84084 -4.52356,10.55497 z m -6.63455,-14.17382 a 7.53927,7.53927 0 0 0 -15.07854,0 c 0,2.29194 1.02534,4.2823 2.62367,5.66953 L 633.07853,576.5 h 6.03142 l 2.02052,-6.03141 h 14.08335 l 1.99037,6.03141 h 6.03141 l -10.16293,-30.51895 c 1.59832,-1.38723 2.62367,-3.37759 2.62367,-5.66953 m -12.5755,24.12565 5.03623,-15.07853 5.03623,15.07853 z"
         id="path91"
         style="fill:#f2f2f2;stroke-width:3.01571" />
    </g>
    <g
       id="g93"
       transform="matrix(0.50309149,0,0,0.50309149,1149.9981,587.09582)"
       style="fill:#f2f2f2">
      <path
         fill="currentColor"
         d="m 633.98325,554.48534 3.61884,-3.61885 c -3.0157,-3.0157 -4.52356,-6.93612 -4.52356,-10.55497 0,-3.92042 1.50786,-7.84084 4.52356,-10.55498 l -3.61884,-3.61884 c -3.92042,3.92042 -6.03142,9.04712 -6.03142,14.17382 0,5.1267 2.111,10.2534 6.03142,14.17382 M 669.56859,518.9 l -3.61885,3.61885 c 4.82513,4.82513 7.23769,11.45968 7.23769,17.79267 0,6.33298 -2.41256,12.96754 -7.23769,17.79267 l 3.61885,3.61885 c 6.03141,-6.03142 8.74555,-13.57068 8.74555,-21.41152 0,-7.84084 -3.01571,-15.38011 -8.74555,-21.41152"
         id="path92"
         style="fill:#f2f2f2;stroke-width:3.01571" />
      <path
         fill="currentColor"
         d="M 630.3644,522.51885 626.74555,518.9 C 621.01571,524.93141 618,532.47068 618,540.31152 c 0,7.84084 3.01571,15.3801 8.74555,21.41152 l 3.61885,-3.61885 c -4.82513,-4.82513 -7.2377,-11.45969 -7.2377,-17.79267 0,-6.33299 2.41257,-12.96754 7.2377,-17.79267 m 31.96649,31.96649 c 3.92042,-3.92042 6.03141,-9.04712 6.03141,-14.17382 -0.30157,-5.1267 -2.11099,-10.2534 -6.03141,-14.17382 l -3.61885,3.61884 c 3.01571,3.01571 4.52356,6.93613 4.52356,10.55498 0,3.92042 -1.50785,7.84084 -4.52356,10.55497 z m -6.63455,-14.17382 a 7.53927,7.53927 0 0 0 -15.07854,0 c 0,2.29194 1.02534,4.2823 2.62367,5.66953 L 633.07853,576.5 h 6.03142 l 2.02052,-6.03141 h 14.08335 l 1.99037,6.03141 h 6.03141 l -10.16293,-30.51895 c 1.59832,-1.38723 2.62367,-3.37759 2.62367,-5.66953 m -12.5755,24.12565 5.03623,-15.07853 5.03623,15.07853 z"
         id="path93"
         style="fill:#f2f2f2;stroke-width:3.01571" />
    </g>
  </g>
  <g
     id="g105"
     inkscape:label="WIFI"
     style="display:inline">
    <path
       fill="currentColor"
       d="m 256.35009,131.85739 q -0.97937,0.62906 -2.08989,0.38713 -1.11058,-0.24194 -1.73964,-1.22126 -0.62902,-0.97937 -0.38708,-2.08989 0.24189,-1.11057 1.22136,-1.73959 0.97926,-0.62901 2.08984,-0.38708 1.11052,0.24194 1.73969,1.22111 0.62891,0.97941 0.38703,2.08994 -0.24189,1.11052 -1.22131,1.73954 m -6.58959,-10.25995 q 1.74885,-1.1233 3.68273,-1.57488 1.93383,-0.45162 3.84442,-0.29531 0.69105,0.0504 1.07058,0.61387 0.37948,0.56397 0.22765,1.2529 -0.14162,0.65115 -0.71696,1.03768 -0.57513,0.38647 -1.25174,0.3588 -1.27548,-0.0372 -2.57276,0.30206 -1.29712,0.33973 -2.48653,1.10292 -1.18925,0.76375 -2.03716,1.80253 -0.84807,1.03868 -1.34472,2.21406 -0.25668,0.62594 -0.85465,0.97705 -0.59792,0.35116 -1.24892,0.20929 -0.666,-0.16507 -1.03265,-0.73598 -0.36665,-0.5708 -0.12547,-1.22105 0.65351,-1.80313 1.87567,-3.36271 1.22227,-1.55974 2.97076,-2.68143 m -3.59429,-5.59644 q 2.91476,-1.872 6.10587,-2.5711 3.19121,-0.69925 6.36557,-0.2678 0.72093,0.0969 1.11837,0.66544 0.39775,0.56784 0.24767,1.25718 -0.14167,0.6511 -0.71705,1.03757 -0.57519,0.38658 -1.28178,0.31222 -2.56244,-0.29747 -5.13546,0.28465 -2.57296,0.58273 -4.90624,2.07998 -2.33349,1.49725 -3.93141,3.5962 -1.59787,2.0987 -2.39623,4.55207 -0.22679,0.67269 -0.81687,1.03587 -0.59012,0.36328 -1.24178,0.22045 -0.68933,-0.15012 -1.04044,-0.74809 -0.35101,-0.59793 -0.13926,-1.29385 0.92871,-3.0668 2.89182,-5.67804 1.96307,-2.6113 4.87692,-4.48285"
       id="path36-3"
       style="fill:#f2f2f2;stroke-width:1.10857" />
    <path
       fill="currentColor"
       d="m 278.0774,443.50081 q -0.97937,0.62906 -2.08989,0.38713 -1.11057,-0.24194 -1.73964,-1.22126 -0.62902,-0.97937 -0.38708,-2.08989 0.24189,-1.11058 1.22136,-1.73959 0.97926,-0.62902 2.08984,-0.38708 1.11052,0.24194 1.73969,1.2211 0.62891,0.97942 0.38703,2.08995 -0.24189,1.11052 -1.22131,1.73954 m -6.58959,-10.25995 q 1.74885,-1.1233 3.68273,-1.57488 1.93383,-0.45162 3.84442,-0.29531 0.69105,0.0504 1.07058,0.61387 0.37948,0.56396 0.22765,1.2529 -0.14162,0.65115 -0.71695,1.03767 -0.57514,0.38648 -1.25175,0.35881 -1.27548,-0.0372 -2.57276,0.30206 -1.29712,0.33973 -2.48653,1.10292 -1.18925,0.76375 -2.03716,1.80253 -0.84807,1.03868 -1.34472,2.21406 -0.25667,0.62594 -0.85465,0.97705 -0.59792,0.35116 -1.24892,0.20929 -0.666,-0.16507 -1.03265,-0.73598 -0.36665,-0.5708 -0.12547,-1.22105 0.65352,-1.80313 1.87568,-3.36271 1.22226,-1.55974 2.97075,-2.68143 m -3.59429,-5.59644 q 2.91476,-1.87201 6.10587,-2.5711 3.19121,-0.69925 6.36557,-0.2678 0.72093,0.0969 1.11837,0.66544 0.39775,0.56784 0.24767,1.25718 -0.14167,0.6511 -0.71705,1.03757 -0.57519,0.38658 -1.28178,0.31222 -2.56244,-0.29748 -5.13546,0.28465 -2.57296,0.58273 -4.90624,2.07998 -2.33349,1.49725 -3.93141,3.5962 -1.59787,2.0987 -2.39623,4.55207 -0.22679,0.67269 -0.81687,1.03587 -0.59012,0.36328 -1.24178,0.22045 -0.68933,-0.15012 -1.04044,-0.74809 -0.35101,-0.59793 -0.13926,-1.29385 0.92871,-3.0668 2.89182,-5.67805 1.96307,-2.61129 4.87692,-4.48284"
       id="path55"
       style="fill:#f2f2f2;stroke-width:1.10857" />
    <path
       fill="currentColor"
       d="m 738.00547,155.64905 q -0.97937,0.62906 -2.08989,0.38713 -1.11058,-0.24194 -1.73964,-1.22126 -0.62902,-0.97936 -0.38708,-2.08989 0.24189,-1.11057 1.22136,-1.73959 0.97926,-0.62901 2.08984,-0.38708 1.11052,0.24194 1.73969,1.22111 0.62891,0.97941 0.38703,2.08994 -0.24189,1.11052 -1.22131,1.73954 M 731.41588,145.389 q 1.74885,-1.1233 3.68273,-1.57488 1.93383,-0.45162 3.84442,-0.29531 0.69105,0.0504 1.07058,0.61387 0.37948,0.56397 0.22765,1.2529 -0.14162,0.65115 -0.71696,1.03768 -0.57513,0.38647 -1.25174,0.3588 -1.27549,-0.0372 -2.57276,0.30206 -1.29712,0.33974 -2.48653,1.10293 -1.18925,0.76374 -2.03716,1.80252 -0.84807,1.03868 -1.34472,2.21406 -0.25668,0.62594 -0.85465,0.97705 -0.59792,0.35116 -1.24892,0.20929 -0.666,-0.16507 -1.03265,-0.73598 -0.36665,-0.5708 -0.12547,-1.22105 0.65351,-1.80313 1.87567,-3.36271 1.22227,-1.55974 2.97076,-2.68143 m -3.59429,-5.59644 q 2.91476,-1.872 6.10587,-2.5711 3.19121,-0.69925 6.36557,-0.2678 0.72093,0.0969 1.11837,0.66544 0.39775,0.56784 0.24767,1.25718 -0.14167,0.6511 -0.71705,1.03758 -0.57519,0.38657 -1.28178,0.31221 -2.56244,-0.29747 -5.13546,0.28465 -2.57296,0.58273 -4.90624,2.07998 -2.33349,1.49726 -3.93141,3.5962 -1.59787,2.0987 -2.39623,4.55208 -0.22679,0.67268 -0.81687,1.03586 -0.59012,0.36328 -1.24178,0.22046 -0.68933,-0.15013 -1.04044,-0.7481 -0.35101,-0.59793 -0.13926,-1.29385 0.92871,-3.0668 2.89182,-5.67804 1.96307,-2.6113 4.87692,-4.48285"
       id="path62"
       style="fill:#f2f2f2;stroke-width:1.10857" />
    <path
       fill="currentColor"
       d="m 1154.7277,575.81774 q -0.9794,0.62906 -2.0899,0.38713 -1.1106,-0.24194 -1.7396,-1.22126 -0.6291,-0.97937 -0.3871,-2.08989 0.2419,-1.11058 1.2213,-1.73959 0.9793,-0.62902 2.0899,-0.38708 1.1105,0.24194 1.7397,1.2211 0.6289,0.97942 0.387,2.08995 -0.2419,1.11052 -1.2213,1.73954 m -6.5896,-10.25995 q 1.7489,-1.1233 3.6827,-1.57488 1.9339,-0.45162 3.8445,-0.29531 0.691,0.0504 1.0705,0.61387 0.3795,0.56396 0.2277,1.2529 -0.1416,0.65115 -0.717,1.03767 -0.5751,0.38648 -1.2517,0.35881 -1.2755,-0.0372 -2.5728,0.30206 -1.2971,0.33973 -2.4865,1.10292 -1.1893,0.76375 -2.0372,1.80253 -0.848,1.03868 -1.3447,2.21406 -0.2567,0.62594 -0.8546,0.97705 -0.598,0.35116 -1.249,0.20929 -0.666,-0.16507 -1.0326,-0.73598 -0.3667,-0.5708 -0.1255,-1.22105 0.6535,-1.80313 1.8757,-3.36271 1.2223,-1.55974 2.9708,-2.68143 m -3.5943,-5.59644 q 2.9147,-1.87201 6.1058,-2.5711 3.1912,-0.69925 6.3656,-0.2678 0.7209,0.0969 1.1184,0.66544 0.3977,0.56784 0.2476,1.25718 -0.1416,0.6511 -0.717,1.03757 -0.5752,0.38658 -1.2818,0.31222 -2.5624,-0.29748 -5.1354,0.28465 -2.573,0.58273 -4.9063,2.07998 -2.3335,1.49725 -3.9314,3.5962 -1.5979,2.0987 -2.3962,4.55207 -0.2268,0.67269 -0.8169,1.03587 -0.5901,0.36328 -1.2418,0.22045 -0.6893,-0.15012 -1.0404,-0.74809 -0.351,-0.59793 -0.1393,-1.29385 0.9287,-3.0668 2.8918,-5.67805 1.9631,-2.61129 4.877,-4.48284"
       id="path68"
       style="fill:#f2f2f2;stroke-width:1.10857" />
    <path
       fill="currentColor"
       d="m 1440.8097,129.9726 q -0.9793,0.62906 -2.0899,0.38713 -1.1105,-0.24194 -1.7396,-1.22126 -0.629,-0.97936 -0.3871,-2.08989 0.2419,-1.11057 1.2214,-1.73959 0.9792,-0.62901 2.0898,-0.38708 1.1105,0.24194 1.7397,1.22111 0.6289,0.97941 0.387,2.08994 -0.2418,1.11052 -1.2213,1.73954 m -6.5896,-10.25995 q 1.7489,-1.1233 3.6828,-1.57488 1.9338,-0.45162 3.8444,-0.29531 0.691,0.0504 1.0706,0.61387 0.3795,0.56397 0.2276,1.2529 -0.1416,0.65115 -0.7169,1.03768 -0.5752,0.38647 -1.2518,0.3588 -1.2755,-0.0372 -2.5727,0.30206 -1.2972,0.33974 -2.4866,1.10293 -1.1892,0.76374 -2.0371,1.80252 -0.8481,1.03868 -1.3447,2.21406 -0.2567,0.62594 -0.8547,0.97705 -0.5979,0.35116 -1.2489,0.20929 -0.666,-0.16507 -1.0327,-0.73598 -0.3666,-0.5708 -0.1254,-1.22105 0.6535,-1.80313 1.8756,-3.36271 1.2223,-1.55974 2.9708,-2.68143 m -3.5943,-5.59644 q 2.9148,-1.872 6.1059,-2.5711 3.1912,-0.69925 6.3655,-0.2678 0.721,0.0969 1.1184,0.66544 0.3978,0.56784 0.2477,1.25718 -0.1417,0.6511 -0.7171,1.03758 -0.5752,0.38657 -1.2817,0.31221 -2.5625,-0.29747 -5.1355,0.28465 -2.573,0.58273 -4.9062,2.07998 -2.3335,1.49726 -3.9315,3.5962 -1.5978,2.0987 -2.3962,4.55208 -0.2268,0.67268 -0.8169,1.03586 -0.5901,0.36328 -1.2417,0.22046 -0.6894,-0.15013 -1.0405,-0.7481 -0.351,-0.59793 -0.1392,-1.29385 0.9287,-3.0668 2.8918,-5.67804 1.9631,-2.6113 4.8769,-4.48285"
       id="path75"
       style="fill:#f2f2f2;stroke-width:1.10857" />
    <path
       fill="currentColor"
       d="m 142.96316,672.08814 q -0.97937,0.62906 -2.08989,0.38713 -1.11058,-0.24194 -1.73964,-1.22126 -0.62902,-0.97937 -0.38708,-2.08989 0.24189,-1.11057 1.22136,-1.73959 0.97926,-0.62901 2.08984,-0.38708 1.11052,0.24194 1.73969,1.22111 0.62891,0.97941 0.38703,2.08994 -0.24189,1.11052 -1.22131,1.73954 m -6.58959,-10.25995 q 1.74885,-1.1233 3.68273,-1.57488 1.93383,-0.45162 3.84442,-0.29531 0.69105,0.0504 1.07058,0.61387 0.37948,0.56397 0.22765,1.2529 -0.14162,0.65115 -0.71696,1.03768 -0.57513,0.38647 -1.25174,0.3588 -1.27548,-0.0372 -2.57276,0.30206 -1.29712,0.33973 -2.48653,1.10292 -1.18925,0.76375 -2.03716,1.80253 -0.84807,1.03868 -1.34472,2.21406 -0.25668,0.62594 -0.85465,0.97705 -0.59792,0.35116 -1.24892,0.20929 -0.666,-0.16507 -1.03265,-0.73598 -0.36665,-0.5708 -0.12547,-1.22105 0.65351,-1.80313 1.87567,-3.36271 1.22227,-1.55974 2.97076,-2.68143 m -3.59429,-5.59644 q 2.91476,-1.872 6.10587,-2.5711 3.19121,-0.69925 6.36557,-0.2678 0.72093,0.0969 1.11837,0.66544 0.39775,0.56784 0.24767,1.25718 -0.14167,0.6511 -0.71705,1.03757 -0.57519,0.38658 -1.28178,0.31222 -2.56244,-0.29747 -5.13546,0.28465 -2.57296,0.58273 -4.90624,2.07998 -2.33349,1.49725 -3.93141,3.5962 -1.59787,2.0987 -2.39623,4.55207 -0.22679,0.67269 -0.81687,1.03587 -0.59012,0.36328 -1.24178,0.22045 -0.68933,-0.15012 -1.04044,-0.74809 -0.35101,-0.59793 -0.13926,-1.29385 0.92871,-3.0668 2.89182,-5.67804 1.96307,-2.6113 4.87692,-4.48285"
       id="path76"
       style="fill:#f2f2f2;stroke-width:1.10857" />
    <path
       fill="currentColor"
       d="m 304.56811,1109.4154 q -0.97937,0.6291 -2.08989,0.3871 -1.11057,-0.2419 -1.73964,-1.2212 -0.62902,-0.9794 -0.38708,-2.0899 0.24189,-1.1106 1.22136,-1.7396 0.97926,-0.629 2.08984,-0.3871 1.11052,0.242 1.73969,1.2211 0.62891,0.9794 0.38703,2.09 -0.24189,1.1105 -1.22131,1.7395 m -6.58959,-10.2599 q 1.74885,-1.1233 3.68273,-1.5749 1.93383,-0.4516 3.84442,-0.2953 0.69105,0.05 1.07058,0.6138 0.37948,0.564 0.22765,1.2529 -0.14162,0.6512 -0.71695,1.0377 -0.57514,0.3865 -1.25175,0.3588 -1.27548,-0.037 -2.57276,0.3021 -1.29712,0.3397 -2.48653,1.1029 -1.18925,0.7637 -2.03716,1.8025 -0.84807,1.0387 -1.34472,2.2141 -0.25667,0.6259 -0.85465,0.977 -0.59792,0.3512 -1.24892,0.2093 -0.666,-0.165 -1.03265,-0.736 -0.36665,-0.5708 -0.12547,-1.221 0.65352,-1.8031 1.87568,-3.3627 1.22226,-1.5598 2.97075,-2.6814 m -3.59429,-5.5965 q 2.91476,-1.872 6.10587,-2.5711 3.19121,-0.6992 6.36557,-0.2678 0.72093,0.097 1.11837,0.6655 0.39775,0.5678 0.24767,1.2571 -0.14167,0.6511 -0.71705,1.0376 -0.57519,0.3866 -1.28178,0.3122 -2.56244,-0.2975 -5.13546,0.2847 -2.57296,0.5827 -4.90624,2.08 -2.33349,1.4972 -3.93141,3.5962 -1.59787,2.0987 -2.39623,4.552 -0.22679,0.6727 -0.81687,1.0359 -0.59012,0.3633 -1.24178,0.2204 -0.68933,-0.1501 -1.04044,-0.748 -0.35101,-0.598 -0.13926,-1.2939 0.92871,-3.0668 2.89182,-5.678 1.96307,-2.6113 4.87692,-4.4829"
       id="path81"
       style="fill:#f2f2f2;stroke-width:1.10857" />
    <path
       fill="currentColor"
       d="m 808.44258,652.77359 q -0.97937,0.62906 -2.08989,0.38713 -1.11058,-0.24194 -1.73964,-1.22126 -0.62902,-0.97937 -0.38708,-2.08989 0.24189,-1.11057 1.22136,-1.73959 0.97926,-0.62901 2.08984,-0.38708 1.11052,0.24194 1.73969,1.22111 0.62891,0.97941 0.38703,2.08994 -0.24189,1.11052 -1.22131,1.73954 m -6.58959,-10.25995 q 1.74885,-1.1233 3.68273,-1.57488 1.93383,-0.45162 3.84442,-0.29531 0.69105,0.0504 1.07058,0.61387 0.37948,0.56397 0.22765,1.2529 -0.14162,0.65115 -0.71696,1.03768 -0.57513,0.38647 -1.25174,0.3588 -1.27548,-0.0372 -2.57276,0.30206 -1.29712,0.33973 -2.48653,1.10292 -1.18925,0.76375 -2.03716,1.80253 -0.84807,1.03868 -1.34472,2.21406 -0.25668,0.62594 -0.85465,0.97705 -0.59792,0.35116 -1.24892,0.20929 -0.666,-0.16507 -1.03265,-0.73598 -0.36665,-0.5708 -0.12547,-1.22105 0.65351,-1.80313 1.87567,-3.36271 1.22227,-1.55974 2.97076,-2.68143 m -3.59429,-5.59644 q 2.91476,-1.872 6.10587,-2.5711 3.19121,-0.69925 6.36557,-0.2678 0.72093,0.0969 1.11837,0.66544 0.39775,0.56784 0.24767,1.25718 -0.14167,0.6511 -0.71705,1.03757 -0.57519,0.38658 -1.28178,0.31222 -2.56244,-0.29747 -5.13546,0.28465 -2.57296,0.58273 -4.90624,2.07998 -2.33349,1.49725 -3.93141,3.5962 -1.59787,2.0987 -2.39623,4.55207 -0.22679,0.67269 -0.81687,1.03587 -0.59012,0.36328 -1.24178,0.22045 -0.68933,-0.15012 -1.04044,-0.74809 -0.35101,-0.59793 -0.13926,-1.29385 0.92871,-3.0668 2.89182,-5.67804 1.96307,-2.6113 4.87692,-4.48285"
       id="path89"
       style="fill:#f2f2f2;stroke-width:1.10857" />
    <path
       fill="currentColor"
       d="m 1451.6734,1082.8309 q -0.9794,0.6291 -2.0899,0.3872 -1.1105,-0.242 -1.7396,-1.2213 -0.629,-0.9794 -0.3871,-2.0899 0.2419,-1.1106 1.2214,-1.7396 0.9792,-0.629 2.0898,-0.387 1.1105,0.2419 1.7397,1.2211 0.6289,0.9794 0.387,2.0899 -0.2419,1.1105 -1.2213,1.7395 m -6.5896,-10.2599 q 1.7489,-1.1233 3.6828,-1.5749 1.9338,-0.4516 3.8444,-0.2953 0.691,0.05 1.0706,0.6139 0.3794,0.5639 0.2276,1.2529 -0.1416,0.6511 -0.7169,1.0376 -0.5752,0.3865 -1.2518,0.3589 -1.2755,-0.037 -2.5728,0.302 -1.2971,0.3397 -2.4865,1.1029 -1.1892,0.7638 -2.0371,1.8026 -0.8481,1.0386 -1.3448,2.214 -0.2566,0.626 -0.8546,0.9771 -0.5979,0.3511 -1.2489,0.2093 -0.666,-0.1651 -1.0327,-0.736 -0.3666,-0.5708 -0.1255,-1.2211 0.6536,-1.8031 1.8757,-3.3627 1.2223,-1.5597 2.9708,-2.6814 m -3.5943,-5.5964 q 2.9147,-1.8721 6.1059,-2.5711 3.1912,-0.6993 6.3655,-0.2678 0.721,0.097 1.1184,0.6654 0.3977,0.5678 0.2477,1.2572 -0.1417,0.6511 -0.7171,1.0375 -0.5752,0.3866 -1.2818,0.3123 -2.5624,-0.2975 -5.1354,0.2846 -2.573,0.5827 -4.9063,2.08 -2.3335,1.4972 -3.9314,3.5962 -1.5978,2.0987 -2.3962,4.5521 -0.2268,0.6727 -0.8169,1.0358 -0.5901,0.3633 -1.2418,0.2205 -0.6893,-0.1501 -1.0404,-0.7481 -0.351,-0.5979 -0.1393,-1.2939 0.9288,-3.0668 2.8919,-5.678 1.963,-2.6113 4.8769,-4.4828"
       id="path94"
       style="fill:#f2f2f2;stroke-width:1.10857" />
    <path
       fill="currentColor"
       d="m 1440.8097,673.50201 q -0.9793,0.62906 -2.0899,0.38713 -1.1105,-0.24194 -1.7396,-1.22126 -0.629,-0.97936 -0.3871,-2.08989 0.2419,-1.11057 1.2214,-1.73959 0.9792,-0.62901 2.0898,-0.38708 1.1105,0.24194 1.7397,1.22111 0.6289,0.97941 0.387,2.08994 -0.2418,1.11052 -1.2213,1.73954 m -6.5896,-10.25995 q 1.7489,-1.1233 3.6828,-1.57488 1.9338,-0.45162 3.8444,-0.29531 0.691,0.0504 1.0706,0.61387 0.3795,0.56397 0.2276,1.2529 -0.1416,0.65115 -0.7169,1.03768 -0.5752,0.38647 -1.2518,0.3588 -1.2755,-0.0372 -2.5727,0.30206 -1.2972,0.33974 -2.4866,1.10293 -1.1892,0.76374 -2.0371,1.80252 -0.8481,1.03868 -1.3447,2.21406 -0.2567,0.62594 -0.8547,0.97705 -0.5979,0.35116 -1.2489,0.20929 -0.666,-0.16507 -1.0327,-0.73598 -0.3666,-0.5708 -0.1254,-1.22105 0.6535,-1.80313 1.8756,-3.36271 1.2223,-1.55974 2.9708,-2.68143 m -3.5943,-5.59644 q 2.9148,-1.872 6.1059,-2.5711 3.1912,-0.69925 6.3655,-0.2678 0.721,0.0969 1.1184,0.66544 0.3978,0.56784 0.2477,1.25718 -0.1417,0.6511 -0.7171,1.03758 -0.5752,0.38657 -1.2817,0.31221 -2.5625,-0.29747 -5.1355,0.28465 -2.573,0.58273 -4.9062,2.07998 -2.3335,1.49726 -3.9315,3.5962 -1.5978,2.0987 -2.3962,4.55208 -0.2268,0.67268 -0.8169,1.03586 -0.5901,0.36328 -1.2417,0.22046 -0.6894,-0.15013 -1.0405,-0.7481 -0.351,-0.59793 -0.1392,-1.29385 0.9287,-3.0668 2.8918,-5.67804 1.9631,-2.6113 4.8769,-4.48285"
       id="path101"
       style="fill:#f2f2f2;stroke-width:1.10857" />
    <path
       fill="currentColor"
       d="m 818.03416,1054.1131 q -0.9793,0.629 -2.0899,0.3871 -1.1105,-0.242 -1.7396,-1.2213 -0.629,-0.9793 -0.3871,-2.0899 0.2419,-1.1105 1.2214,-1.7396 0.9792,-0.629 2.0898,-0.387 1.1105,0.2419 1.7397,1.2211 0.6289,0.9794 0.387,2.0899 -0.2418,1.1105 -1.2213,1.7396 m -6.5896,-10.26 q 1.7489,-1.1233 3.6828,-1.5749 1.9338,-0.4516 3.8444,-0.2953 0.691,0.05 1.0706,0.6139 0.3795,0.564 0.2276,1.2529 -0.1416,0.6511 -0.7169,1.0377 -0.5752,0.3864 -1.2518,0.3588 -1.2755,-0.037 -2.5727,0.302 -1.2972,0.3398 -2.4866,1.103 -1.1892,0.7637 -2.0371,1.8025 -0.8481,1.0387 -1.3447,2.214 -0.2567,0.626 -0.8547,0.9771 -0.5979,0.3511 -1.2489,0.2093 -0.666,-0.1651 -1.0327,-0.736 -0.3666,-0.5708 -0.1254,-1.2211 0.6535,-1.8031 1.8756,-3.3627 1.2223,-1.5597 2.9708,-2.6814 m -3.5943,-5.5964 q 2.9148,-1.872 6.1059,-2.5711 3.1912,-0.6993 6.3655,-0.2678 0.721,0.097 1.1184,0.6654 0.3978,0.5678 0.2477,1.2572 -0.1417,0.6511 -0.7171,1.0376 -0.5752,0.3865 -1.2817,0.3122 -2.5625,-0.2975 -5.1355,0.2846 -2.573,0.5828 -4.9062,2.08 -2.3335,1.4973 -3.9315,3.5962 -1.5978,2.0987 -2.3962,4.5521 -0.2268,0.6727 -0.8169,1.0358 -0.5901,0.3633 -1.2417,0.2205 -0.6894,-0.1501 -1.0405,-0.7481 -0.351,-0.5979 -0.1392,-1.2938 0.9287,-3.0668 2.8918,-5.6781 1.9631,-2.6113 4.8769,-4.4828"
       id="path102"
       style="fill:#f2f2f2;stroke-width:1.10857" />
  </g>
  <g
     id="g102"
     style="display:inline;stroke:#f2f2f2"
     inkscape:label="Stripes"
     transform="rotate(-12.929098,1129.8098,708.79868)">
    <g
       id="g57"
       transform="matrix(0.50309149,0,0,0.50309149,32.192215,-42.214762)"
       style="fill:#f2f2f2;stroke:#f2f2f2">
      <path
         style="fill:#f2f2f2;fill-opacity:0.0156863;fill-rule:evenodd;stroke:#f2f2f2;stroke-width:4.124;stroke-dasharray:none"
         d="M 350.82023,524.92512 503.37862,436.84549"
         id="path56" />
      <path
         style="fill:#f2f2f2;fill-opacity:0.0156863;fill-rule:evenodd;stroke:#f2f2f2;stroke-width:4.124;stroke-dasharray:none"
         d="M 393.19693,520.30165 555.8014,426.42192"
         id="path57" />
    </g>
    <g
       id="g59"
       transform="matrix(0.50309149,0,0,0.50309149,361.4915,-116.21162)"
       style="fill:#f2f2f2;stroke:#f2f2f2">
      <path
         style="fill:#f2f2f2;fill-opacity:0.0156863;fill-rule:evenodd;stroke:#f2f2f2;stroke-width:4.124;stroke-dasharray:none"
         d="M 350.82023,524.92512 503.37862,436.84549"
         id="path58" />
      <path
         style="fill:#f2f2f2;fill-opacity:0.0156863;fill-rule:evenodd;stroke:#f2f2f2;stroke-width:4.124;stroke-dasharray:none"
         d="M 393.19693,520.30165 555.8014,426.42192"
         id="path59" />
    </g>
    <g
       id="g61"
       transform="matrix(0.50309149,0,0,0.50309149,257.60189,281.35604)"
       style="fill:#f2f2f2;stroke:#f2f2f2">
      <path
         style="fill:#f2f2f2;fill-opacity:0.0156863;fill-rule:evenodd;stroke:#f2f2f2;stroke-width:4.124;stroke-dasharray:none"
         d="M 350.82023,524.92512 503.37862,436.84549"
         id="path60" />
      <path
         style="fill:#f2f2f2;fill-opacity:0.0156863;fill-rule:evenodd;stroke:#f2f2f2;stroke-width:4.124;stroke-dasharray:none"
         d="M 393.19693,520.30165 555.8014,426.42192"
         id="path61" />
    </g>
    <g
       id="g70"
       transform="matrix(0.50309149,0,0,0.50309149,729.37857,-21.782318)"
       style="fill:#f2f2f2;stroke:#f2f2f2">
      <path
         style="fill:#f2f2f2;fill-opacity:0.0156863;fill-rule:evenodd;stroke:#f2f2f2;stroke-width:4.124;stroke-dasharray:none"
         d="M 350.82023,524.92512 503.37862,436.84549"
         id="path69" />
      <path
         style="fill:#f2f2f2;fill-opacity:0.0156863;fill-rule:evenodd;stroke:#f2f2f2;stroke-width:4.124;stroke-dasharray:none"
         d="M 393.19693,520.30165 555.8014,426.42192"
         id="path70" />
    </g>
    <g
       id="g72"
       transform="matrix(0.50309149,0,0,0.50309149,1064.2958,-141.88807)"
       style="fill:#f2f2f2;stroke:#f2f2f2">
      <path
         style="fill:#f2f2f2;fill-opacity:0.0156863;fill-rule:evenodd;stroke:#f2f2f2;stroke-width:4.124;stroke-dasharray:none"
         d="M 350.82023,524.92512 503.37862,436.84549"
         id="path71" />
      <path
         style="fill:#f2f2f2;fill-opacity:0.0156863;fill-rule:evenodd;stroke:#f2f2f2;stroke-width:4.124;stroke-dasharray:none"
         d="M 393.19693,520.30165 555.8014,426.42192"
         id="path72" />
    </g>
    <g
       id="g74"
       transform="matrix(0.50309149,0,0,0.50309149,1153.5034,203.2083)"
       style="fill:#f2f2f2;stroke:#f2f2f2">
      <path
         style="fill:#f2f2f2;fill-opacity:0.0156863;fill-rule:evenodd;stroke:#f2f2f2;stroke-width:4.124;stroke-dasharray:none"
         d="M 350.82023,524.92512 503.37862,436.84549"
         id="path73" />
      <path
         style="fill:#f2f2f2;fill-opacity:0.0156863;fill-rule:evenodd;stroke:#f2f2f2;stroke-width:4.124;stroke-dasharray:none"
         d="M 393.19693,520.30165 555.8014,426.42192"
         id="path74" />
    </g>
    <g
       id="g83"
       transform="matrix(0.50309149,0,0,0.50309149,93.392991,583.44326)"
       style="fill:#f2f2f2;stroke:#f2f2f2">
      <path
         style="fill:#f2f2f2;fill-opacity:0.0156863;fill-rule:evenodd;stroke:#f2f2f2;stroke-width:4.124;stroke-dasharray:none"
         d="M 350.82023,524.92512 503.37862,436.84549"
         id="path82" />
      <path
         style="fill:#f2f2f2;fill-opacity:0.0156863;fill-rule:evenodd;stroke:#f2f2f2;stroke-width:4.124;stroke-dasharray:none"
         d="M 393.19693,520.30165 555.8014,426.42192"
         id="path83" />
    </g>
    <g
       id="g85"
       transform="matrix(0.50309149,0,0,0.50309149,428.31019,463.3375)"
       style="fill:#f2f2f2;stroke:#f2f2f2">
      <path
         style="fill:#f2f2f2;fill-opacity:0.0156863;fill-rule:evenodd;stroke:#f2f2f2;stroke-width:4.124;stroke-dasharray:none"
         d="M 350.82023,524.92512 503.37862,436.84549"
         id="path84" />
      <path
         style="fill:#f2f2f2;fill-opacity:0.0156863;fill-rule:evenodd;stroke:#f2f2f2;stroke-width:4.124;stroke-dasharray:none"
         d="M 393.19693,520.30165 555.8014,426.42192"
         id="path85" />
    </g>
    <g
       id="g87"
       transform="matrix(0.50309149,0,0,0.50309149,391.83509,771.91769)"
       style="fill:#f2f2f2;stroke:#f2f2f2">
      <path
         style="fill:#f2f2f2;fill-opacity:0.0156863;fill-rule:evenodd;stroke:#f2f2f2;stroke-width:4.124;stroke-dasharray:none"
         d="M 350.82023,524.92512 503.37862,436.84549"
         id="path86" />
      <path
         style="fill:#f2f2f2;fill-opacity:0.0156863;fill-rule:evenodd;stroke:#f2f2f2;stroke-width:4.124;stroke-dasharray:none"
         d="M 393.19693,520.30165 555.8014,426.42192"
         id="path87" />
    </g>
    <g
       id="g96"
       transform="matrix(0.50309149,0,0,0.50309149,729.37857,521.74709)"
       style="fill:#f2f2f2;stroke:#f2f2f2">
      <path
         style="fill:#f2f2f2;fill-opacity:0.0156863;fill-rule:evenodd;stroke:#f2f2f2;stroke-width:4.124;stroke-dasharray:none"
         d="M 350.82023,524.92512 503.37862,436.84549"
         id="path95" />
      <path
         style="fill:#f2f2f2;fill-opacity:0.0156863;fill-rule:evenodd;stroke:#f2f2f2;stroke-width:4.124;stroke-dasharray:none"
         d="M 393.19693,520.30165 555.8014,426.42192"
         id="path96" />
    </g>
    <g
       id="g103"
       style="stroke:#f2f2f2">
      <g
         id="g98"
         transform="matrix(0.50309149,0,0,0.50309149,1008.1368,520.58408)"
         style="fill:#f2f2f2;stroke:#f2f2f2">
        <path
           style="fill:#f2f2f2;fill-opacity:0.0156863;fill-rule:evenodd;stroke:#f2f2f2;stroke-width:4.124;stroke-dasharray:none"
           d="M 350.82023,524.92512 503.37862,436.84549"
           id="path97" />
      </g>
      <path
         style="fill:#f2f2f2;fill-opacity:0.0156863;fill-rule:evenodd;stroke:#f2f2f2;stroke-width:4.124;stroke-dasharray:none"
         d="M 393.19693,520.30165 555.8014,426.42192"
         id="path98"
         transform="matrix(0.50309149,0,0,0.50309149,1008.1368,520.58408)" />
    </g>
    <g
       id="g100"
       transform="matrix(0.50309149,0,0,0.50309149,943.55257,746.24124)"
       style="fill:#f2f2f2;stroke:#f2f2f2">
      <path
         style="fill:#f2f2f2;fill-opacity:0.0156863;fill-rule:evenodd;stroke:#f2f2f2;stroke-width:4.124;stroke-dasharray:none"
         d="M 350.82023,524.92512 503.37862,436.84549"
         id="path99" />
      <path
         style="fill:#f2f2f2;fill-opacity:0.0156863;fill-rule:evenodd;stroke:#f2f2f2;stroke-width:4.124;stroke-dasharray:none"
         d="M 393.19693,520.30165 555.8014,426.42192"
         id="path100" />
    </g>
  </g>
</svg>
